<?xml version="1.0" encoding="utf-8"?>
<!-- Generator: Adobe Illustrator 16.0.0, SVG Export Plug-In . SVG Version: 6.00 Build 0)  -->
<!DOCTYPE svg PUBLIC "-//W3C//DTD SVG 1.1//EN" "http://www.w3.org/Graphics/SVG/1.1/DTD/svg11.dtd">
<svg version="1.1" id="Layer_1" xmlns="http://www.w3.org/2000/svg" xmlns:xlink="http://www.w3.org/1999/xlink" x="0px" y="0px"
	 width="100px" height="100px" viewBox="0 0 100 100" enable-background="new 0 0 100 100" xml:space="preserve">
<g>
	<g>
		<path d="M17.59,40.68h64.83l14.63,47.03H2.95L17.59,40.68z M79.16,45.1H20.84L8.96,83.29h82.08L79.16,45.1z"/>
		<rect x="10.32" y="61.99" transform="matrix(0.139 -0.9903 0.9903 0.139 -36.1618 86.8016)" width="43.03" height="4.42"/>
		<polygon points="8.48,72.87 81.94,46.91 83.42,51.07 8.76,77.61 		"/>
	</g>
	<path d="M57.57,12.29c-10.4,0-18.83,8.43-18.83,18.82c0,10.4,18.83,37.96,18.83,37.96s18.83-27.57,18.83-37.96
		S67.97,12.29,57.57,12.29z M57.53,37.46c-4.28,0-7.76-3.47-7.76-7.76s3.47-7.76,7.76-7.76c4.29,0,7.76,3.47,7.76,7.76
		S61.81,37.46,57.53,37.46z"/>
</g>
<g>
</g>
<g>
</g>
<g>
</g>
<g>
</g>
<g>
</g>
<g>
</g>
<g>
</g>
<g>
</g>
<g>
</g>
<g>
</g>
<g>
</g>
<g>
</g>
<g>
</g>
<g>
</g>
<g>
</g>
</svg>
